<?xml version="1.0" encoding="UTF-8"?>
<svg id="Ebene_1" xmlns="http://www.w3.org/2000/svg" viewBox="0 0 582.87 205.36">
  <defs>
    <style>
      .cls-1 {
        fill: #0069b4;
      }
    </style>
  </defs>
  <path class="cls-1" d="M204.76,90.82l-18.83-4.4,16.03-10.8-23.89-.28.52,2.85,15.09-.1v.06s-13.86,9.4-13.86,9.4l16.3,3.86v.06s-14.13,5.27-14.13,5.27l.52,2.85,22.24-8.76h0ZM192.97,61.72l2.27-1.18-5.56-10.72-19.97,10.36,5.56,10.72,2.28-1.18-4.27-8.24,7.55-3.92,4.15,8,2.27-1.18-4.15-8,5.59-2.9,4.27,8.24h0ZM174.67,47.35c5.52-5.07,4.32-11.74-.35-16.82l-3.15-3.43-16.56,15.22,3.09,3.36c4.81,5.23,11.32,6.86,16.97,1.67h0ZM172.69,45.37c-4.81,4.42-9.75,2.23-13.62-1.99l-.67-.72,12.79-11.75.67.72c3.88,4.22,5.67,9.3.84,13.74h0ZM150.69,39.18l2.86-25.63-21.28,14.58,2.59,1.55,5.1-3.51,8.85,5.31-.7,6.16,2.58,1.55h0ZM150.38,18.82l-1.26,9.86-6.85-4.11,8.11-5.75h0ZM122.53,13.18l12.28-7.34-3.56-.89-11.64,7.13,2.38-9.46-2.72-.68-5.5,21.81,2.72.69,2.3-9.11,1.36-.77,5.66,12.22,3.68.93-6.96-14.52h0ZM105.55,23.2l3.01-.09L97.12,0l-10.03,23.76,3.01-.09,2.4-5.71,10.32-.31,2.73,5.56h0ZM101.57,15.12l-7.99.24,3.72-9.22,4.27,8.97h0ZM79.77,15.21l-.31-.84-8.36,3.11.89,2.4,5.45-2.03c1.17,3.48-1.3,7.62-4.58,8.84-4.56,1.7-9.76-1.15-11.4-5.56-1.76-4.73.51-9.94,5.24-11.69,2.57-.96,5.63-.53,7.91.98l1.19-2.45c-3.03-1.83-6.83-2.1-10.1-.89-6.07,2.26-9.08,9.04-6.82,15.11,2.17,5.84,8.82,9.17,14.72,6.97,5.9-2.2,8.33-8.16,6.18-13.95h0ZM48.03,31.86c2.36-2.27,2.45-5.71.51-8.28-1.3-1.71-3.43-2.76-5.59-2.5-2.04.27-3.77,1.55-5.37,2.75l-2.71,2.05,13.57,17.94,2.24-1.69-5.74-7.59.93-.7,11.03,3.6,2.71-2.05-11.56-3.52h0ZM44.24,32.15l-.71.54-4.92-6.5.6-.45c2.21-1.68,5.19-3.29,7.31-.48,2.16,2.86,0,5.16-2.28,6.89h0ZM27.31,47.3l-4.88-3.98,5.87-7.19-1.99-1.62-7.64,9.36,17.43,14.22,7.64-9.36-1.99-1.62-5.87,7.19-6.59-5.38,5.7-6.98-1.99-1.62-5.7,6.98h0ZM19.96,62.53c0-1.68-1.33-3.31-2.82-4.01-4.58-2.18-7.29.96-9.11,4.79l-1.18,2.48,20.32,9.66,2.25-4.74c1.7-3.59,1.74-7.83-2.33-9.76-2.37-1.13-5.51-.57-7.08,1.62l-.05-.03h0ZM17.36,66.88l-.31.65-6.74-3.2.33-.7c1.13-2.37,2.54-4.08,5.4-2.73,2.91,1.38,2.46,3.58,1.32,5.98h0ZM19.81,66.92c1.08-2.27,3.05-4.89,5.91-3.54,2.88,1.37,2.42,4.16,1.3,6.5l-.92,1.94-7.04-3.35.74-1.56h0ZM14.57,93.67l-14.23-.29-.06,2.8,13.28.27c3.67.08,7.05,1.25,6.96,5.58-.09,4.33-3.51,5.36-7.18,5.29l-13.28-.27-.06,2.8,14.23.29c4.95.1,8.8-2.89,8.91-8.05.11-5.16-3.62-8.31-8.57-8.41h0ZM4.01,119.98l-2.49.59,3.1,13.12,2.49-.59-1.23-5.2,19.4-4.58-.64-2.73-19.4,4.58-1.23-5.2h0ZM43.81,157.37l-15.06,16.71,2.08,1.88,7.39-8.2,5.81,5.23,1.71-1.9-5.81-5.23,4.24-4.7,6.01,5.41,1.71-1.9-8.09-7.29h0ZM55.8,168.08l-11.12,19.55,2.44,1.38,4.7-8.27,1.01.58,1.06,11.55,2.95,1.68-1.33-12.02c3.02,1.27,6.21,0,7.8-2.8,1.06-1.87,1.18-4.24.09-6.13-1.06-1.77-2.91-2.86-4.65-3.84l-2.95-1.68h0ZM52.97,178.73l4.03-7.08.65.37c2.41,1.37,5.07,3.46,3.33,6.53-1.77,3.11-4.73,2.05-7.22.63l-.78-.44h0ZM71.54,176.79l-6.56,21.52,11.56,3.52.75-2.45-8.88-2.7,2.48-8.14,8.62,2.62.75-2.45-8.62-2.62,1.84-6.03,8.88,2.7.75-2.45-11.56-3.52h0ZM89.12,181.51l-2.69,22.33,2.78.34,2.69-22.33-2.78-.34h0ZM101.69,182.78l-2.74.1.81,22.48,5.25-.19c3.97-.14,7.75-2.07,7.58-6.57-.09-2.63-2.03-5.15-4.71-5.53v-.06c1.49-.77,2.31-2.71,2.25-4.35-.18-5.07-4.21-6.03-8.45-5.87h0ZM102.19,194.97l1.73-.06c2.5-.09,5.75.45,5.87,3.61.11,3.19-2.57,4.07-5.17,4.16l-2.15.08-.28-7.79h0ZM101.84,185.28l.78-.03c2.63-.1,4.79.37,4.91,3.53.12,3.22-2.04,3.84-4.7,3.93l-.72.03-.27-7.46h0ZM128.05,178.32l-11.6,3.37,6.27,21.6,11.6-3.37-.71-2.46-8.91,2.59-2.37-8.17,8.65-2.51-.71-2.46-8.65,2.51-1.76-6.05,8.91-2.59-.71-2.46h0ZM133.11,176.76l10.83,19.71,2.46-1.35-4.59-8.34,1.02-.56,10.39,5.15,2.98-1.64-10.93-5.16c2.66-1.91,3.25-5.29,1.7-8.12-1.03-1.88-2.99-3.22-5.17-3.28-2.06-.03-3.96.98-5.71,1.95l-2.98,1.64h0ZM136.77,177.61l.65-.36c2.43-1.34,5.61-2.5,7.3.58,1.73,3.14-.74,5.11-3.25,6.49l-.79.43-3.92-7.14h0ZM155.11,177.7c4.21,4.59,11.62,5.17,16.26.91,4.64-4.26,4.65-10.69.47-15.24l-.6-.66-6.57,6.03,1.73,1.89,4.29-3.93c2.39,2.79,1.66,7.55-.91,9.91-3.58,3.29-9.47,2.61-12.66-.87-3.41-3.72-3.27-9.4.45-12.8,2.02-1.85,5.01-2.61,7.69-2.08l.18-2.71c-3.5-.55-7.12.62-9.69,2.98-4.77,4.38-5.01,11.79-.63,16.57h0ZM181.08,115.68l-2.95,11.71,2.48.63,2.27-9,8.25,2.08-2.2,8.74,2.48.63,2.2-8.74,6.11,1.54-2.27,9,2.48.63,2.95-11.71-21.81-5.5h0ZM181.62,108.18l22.44,1.6.2-2.79-22.44-1.6-.2,2.79h0ZM19.8,150.02c0,1.54,1.25,2.79,2.79,2.79s2.79-1.25,2.79-2.79-1.25-2.79-2.79-2.79-2.79,1.25-2.79,2.79ZM178.86,150.02c0,1.54,1.25,2.79,2.79,2.79s2.79-1.25,2.79-2.79-1.25-2.79-2.79-2.79-2.79,1.25-2.79,2.79Z"/>
  <g>
    <path class="cls-1" d="M276.78,38.85v63.79h-18.29v-63.79h-17.22v-15.44h52.74v15.44h-17.22Z"/>
    <path class="cls-1" d="M370.62,70.32c0,7.6-.95,16.99-8.79,25.06-7.6,7.84-16.39,9.03-24.71,9.03s-17.11-1.19-24.71-9.03c-7.84-8.08-8.79-17.46-8.79-25.06V23.4h18.29v46.45c0,3.44.24,9.26,4.16,13.3,3.21,3.44,7.6,4.16,11.05,4.16s7.84-.71,11.05-4.16c3.92-4.04,4.16-9.86,4.16-13.3V23.4h18.29v46.92Z"/>
    <path class="cls-1" d="M439.75,65.69c-2.85-2.85-7.13-4.75-10.93-5.35,1.9-.83,4.63-2.49,6.65-5.82,2.14-3.44,2.61-7.01,2.61-10.1,0-3.44-.59-10.1-5.7-14.97-6.18-5.82-15.92-6.06-20.19-6.06h-24.23v79.23h29.81c4.87,0,14.37-.47,20.91-6.77,3.09-3.09,6.18-8.08,6.18-16.04,0-7.01-2.49-11.52-5.11-14.14ZM406.01,37.66h2.85c3.33,0,6.89,0,9.5,2.02,1.42,1.07,3.09,3.21,3.09,6.65s-1.55,5.82-3.21,7.01c-2.61,1.9-6.77,2.26-9.27,2.26h-2.97v-17.94ZM423.95,85.17c-3.33,3.09-8.91,3.21-13.54,3.21h-4.4v-19.24h4.99c3.68,0,9.86,0,13.07,2.97,1.19,1.07,2.5,3.21,2.5,6.41,0,2.85-.95,5.11-2.61,6.65Z"/>
    <path class="cls-1" d="M498.78,23.4h-16.75l-31.95,79.23h19.01l6.06-14.97h29.94l5.94,14.97h19.01l-31.24-79.23ZM480.49,73.65l9.86-26.61,9.74,26.61h-19.6Z"/>
    <path class="cls-1" d="M582.87,38.85h-25.66v15.32h23.76v15.44h-23.76v33.02h-18.29V23.4h43.95v15.44Z"/>
  </g>
  <g>
    <path class="cls-1" d="M257.4,129.24h4.26c2.1,0,5.07.22,7.71,2.44,1.91,1.6,3.57,4.26,3.57,8.02,0,4.38-2.16,6.73-3.66,8.02-1.91,1.63-3.92,2.41-7.64,2.41h-4.23v-20.89ZM259.71,147.94h2.04c1.66,0,3.95-.19,5.98-1.88,1.57-1.32,2.82-3.38,2.82-6.36,0-5.01-3.51-8.27-8.8-8.27h-2.04v16.51Z"/>
    <path class="cls-1" d="M277.76,130.62c.88,0,1.6.72,1.6,1.6s-.72,1.6-1.6,1.6-1.6-.72-1.6-1.6.72-1.6,1.6-1.6ZM278.89,137.13v13h-2.26v-13h2.26Z"/>
    <path class="cls-1" d="M294.68,146.81c-.38.72-.94,1.5-1.6,2.1-1.19,1.07-2.66,1.6-4.32,1.6-3.13,0-6.42-1.97-6.42-6.8,0-3.88,2.38-6.89,6.3-6.89,2.54,0,4.14,1.25,4.92,2.38.81,1.16,1.28,3.16,1.22,4.89h-10.12c.03,2.69,1.88,4.42,4.13,4.42,1.07,0,1.91-.31,2.66-.94.6-.5,1.07-1.16,1.35-1.79l1.88,1.03ZM292.45,142.21c-.38-2.04-1.91-3.38-3.82-3.38s-3.48,1.44-3.82,3.38h7.64Z"/>
    <path class="cls-1" d="M309.43,129.24c1.41,0,3.51.09,5.07,1.16,1.22.81,2.29,2.41,2.29,4.64,0,3.19-2.1,5.54-5.26,5.76l6.64,9.34h-2.82l-6.36-9.15h-.59v9.15h-2.32v-20.89h3.35ZM308.4,138.92h1.47c2.88,0,4.61-1.38,4.61-3.82,0-1.16-.34-2.32-1.66-3.07-.94-.53-2-.6-3.01-.6h-1.41v7.49Z"/>
    <path class="cls-1" d="M332.14,146.81c-.38.72-.94,1.5-1.6,2.1-1.19,1.07-2.66,1.6-4.32,1.6-3.13,0-6.42-1.97-6.42-6.8,0-3.88,2.38-6.89,6.3-6.89,2.54,0,4.13,1.25,4.92,2.38.81,1.16,1.28,3.16,1.22,4.89h-10.12c.03,2.69,1.88,4.42,4.14,4.42,1.07,0,1.91-.31,2.66-.94.59-.5,1.06-1.16,1.35-1.79l1.88,1.03ZM329.92,142.21c-.38-2.04-1.91-3.38-3.82-3.38s-3.48,1.44-3.82,3.38h7.64Z"/>
    <path class="cls-1" d="M341.04,140.14c-.31-.75-.97-1.32-1.82-1.32s-1.57.47-1.57,1.47c0,.94.63,1.22,2.1,1.85,1.88.78,2.76,1.38,3.26,2,.56.69.69,1.38.69,2.1,0,2.73-1.97,4.26-4.48,4.26-.53,0-3.45-.06-4.54-3.32l1.94-.81c.25.69,1,2.13,2.63,2.13,1.47,0,2.13-1.1,2.13-2.07,0-1.22-.88-1.63-2.1-2.16-1.57-.69-2.57-1.19-3.16-1.91-.5-.63-.59-1.25-.59-1.91,0-2.29,1.6-3.63,3.79-3.63.69,0,2.54.12,3.57,2.35l-1.85.97Z"/>
    <path class="cls-1" d="M352.07,140.14c-.31-.75-.97-1.32-1.82-1.32s-1.57.47-1.57,1.47c0,.94.63,1.22,2.1,1.85,1.88.78,2.76,1.38,3.26,2,.56.69.69,1.38.69,2.1,0,2.73-1.97,4.26-4.48,4.26-.53,0-3.45-.06-4.54-3.32l1.94-.81c.25.69,1,2.13,2.63,2.13,1.47,0,2.13-1.1,2.13-2.07,0-1.22-.88-1.63-2.1-2.16-1.57-.69-2.57-1.19-3.16-1.91-.5-.63-.59-1.25-.59-1.91,0-2.29,1.6-3.63,3.79-3.63.69,0,2.54.12,3.57,2.35l-1.85.97Z"/>
    <path class="cls-1" d="M356.92,143.68c0-3.95,2.91-6.86,6.89-6.86s6.89,2.91,6.89,6.86-2.94,6.83-6.89,6.83-6.89-2.88-6.89-6.83ZM359.24,143.68c0,3.2,2.26,4.82,4.57,4.82s4.57-1.66,4.57-4.82-2.19-4.85-4.57-4.85-4.57,1.69-4.57,4.85Z"/>
    <path class="cls-1" d="M376.41,144.71c0,.91,0,1.97.63,2.79.34.44,1.03,1,2.29,1s1.94-.56,2.29-1c.63-.81.63-1.88.63-2.79v-7.58h2.26v7.83c0,1.6-.16,2.79-1.19,3.92-1.16,1.22-2.69,1.63-3.98,1.63s-2.82-.41-3.98-1.63c-1.03-1.13-1.19-2.32-1.19-3.92v-7.83h2.26v7.58Z"/>
    <path class="cls-1" d="M388.75,137.13h2.26v1.41c.22-.34,1.19-1.72,2.94-1.72.69,0,1.44.25,2,.53l-1.06,2.04c-.5-.34-.97-.44-1.32-.44-.91,0-1.47.38-1.82.81-.38.5-.75,1.38-.75,3.51v6.86h-2.26v-13Z"/>
    <path class="cls-1" d="M407.45,140.77c-1.19-1.5-2.91-1.94-4.07-1.94-2.41,0-4.61,1.69-4.61,4.85s2.26,4.82,4.57,4.82c1.35,0,3.01-.59,4.2-2.04v2.69c-1.41,1.03-2.91,1.35-4.14,1.35-4.04,0-6.95-2.88-6.95-6.8s2.94-6.89,6.95-6.89c2.07,0,3.42.81,4.04,1.25v2.69Z"/>
    <path class="cls-1" d="M422.52,146.81c-.38.72-.94,1.5-1.6,2.1-1.19,1.07-2.66,1.6-4.32,1.6-3.13,0-6.42-1.97-6.42-6.8,0-3.88,2.38-6.89,6.3-6.89,2.54,0,4.14,1.25,4.92,2.38.81,1.16,1.28,3.16,1.22,4.89h-10.12c.03,2.69,1.88,4.42,4.13,4.42,1.07,0,1.91-.31,2.66-.94.6-.5,1.07-1.16,1.35-1.79l1.88,1.03ZM420.3,142.21c-.38-2.04-1.91-3.38-3.82-3.38s-3.48,1.44-3.82,3.38h7.64Z"/>
    <path class="cls-1" d="M426.06,137.13h2.26v1.5c.41-.53,1.57-1.82,3.73-1.82,1.53,0,2.94.63,3.73,1.79.66.97.75,2.04.75,3.48v8.05h-2.26v-7.99c0-.78-.06-1.69-.6-2.38-.44-.56-1.13-.94-2.13-.94-.78,0-1.63.22-2.29,1-.88,1.03-.94,2.57-.94,3.51v6.8h-2.26v-13Z"/>
    <path class="cls-1" d="M443.04,144.71c0,.91,0,1.97.63,2.79.34.44,1.03,1,2.29,1s1.94-.56,2.29-1c.63-.81.63-1.88.63-2.79v-7.58h2.26v7.83c0,1.6-.16,2.79-1.19,3.92-1.16,1.22-2.69,1.63-3.98,1.63s-2.82-.41-3.98-1.63c-1.03-1.13-1.19-2.32-1.19-3.92v-7.83h2.26v7.58Z"/>
    <path class="cls-1" d="M455.39,137.13h2.26v1.5c.41-.53,1.57-1.82,3.73-1.82,1.53,0,2.94.63,3.73,1.79.66.97.75,2.04.75,3.48v8.05h-2.26v-7.99c0-.78-.06-1.69-.6-2.38-.44-.56-1.13-.94-2.13-.94-.78,0-1.63.22-2.29,1-.88,1.03-.94,2.57-.94,3.51v6.8h-2.26v-13Z"/>
    <path class="cls-1" d="M471.24,130.62c.88,0,1.6.72,1.6,1.6s-.72,1.6-1.6,1.6-1.6-.72-1.6-1.6.72-1.6,1.6-1.6ZM472.37,137.13v13h-2.26v-13h2.26Z"/>
    <path class="cls-1" d="M477.25,137.13l3.88,8.77,3.88-8.77h2.51l-6.39,13.84-6.39-13.84h2.51Z"/>
    <path class="cls-1" d="M501.44,146.81c-.38.72-.94,1.5-1.6,2.1-1.19,1.07-2.66,1.6-4.32,1.6-3.13,0-6.42-1.97-6.42-6.8,0-3.88,2.38-6.89,6.3-6.89,2.54,0,4.14,1.25,4.92,2.38.81,1.16,1.28,3.16,1.22,4.89h-10.12c.03,2.69,1.88,4.42,4.13,4.42,1.07,0,1.91-.31,2.66-.94.6-.5,1.07-1.16,1.35-1.79l1.88,1.03ZM499.21,142.21c-.38-2.04-1.91-3.38-3.82-3.38s-3.48,1.44-3.82,3.38h7.64Z"/>
    <path class="cls-1" d="M504.98,137.13h2.26v1.41c.22-.34,1.19-1.72,2.94-1.72.69,0,1.44.25,2,.53l-1.07,2.04c-.5-.34-.97-.44-1.31-.44-.91,0-1.47.38-1.82.81-.38.5-.75,1.38-.75,3.51v6.86h-2.26v-13Z"/>
    <path class="cls-1" d="M519.26,140.14c-.31-.75-.97-1.32-1.82-1.32s-1.57.47-1.57,1.47c0,.94.63,1.22,2.1,1.85,1.88.78,2.76,1.38,3.26,2,.56.69.69,1.38.69,2.1,0,2.73-1.97,4.26-4.48,4.26-.53,0-3.45-.06-4.54-3.32l1.94-.81c.25.69,1,2.13,2.63,2.13,1.47,0,2.13-1.1,2.13-2.07,0-1.22-.88-1.63-2.1-2.16-1.57-.69-2.57-1.19-3.16-1.91-.5-.63-.59-1.25-.59-1.91,0-2.29,1.6-3.63,3.79-3.63.69,0,2.54.12,3.57,2.35l-1.85.97Z"/>
    <path class="cls-1" d="M526.06,130.62c.88,0,1.6.72,1.6,1.6s-.72,1.6-1.6,1.6-1.6-.72-1.6-1.6.72-1.6,1.6-1.6ZM527.19,137.13v13h-2.26v-13h2.26Z"/>
    <path class="cls-1" d="M533.77,139.2v10.93h-2.26v-10.93h-1.38v-2.07h1.38v-4.7h2.26v4.7h2.25v2.07h-2.25Z"/>
    <path class="cls-1" d="M548.11,137.13h2.26v13h-2.26v-1.82c-.75.97-2.16,2.19-4.45,2.19-3.29,0-6.33-2.32-6.33-6.89s3.01-6.8,6.33-6.8c2.5,0,3.85,1.38,4.45,2.16v-1.85ZM539.66,143.62c0,2.79,1.57,4.89,4.26,4.89s4.32-2.29,4.32-4.85c0-3.35-2.32-4.82-4.32-4.82-2.23,0-4.26,1.63-4.26,4.79ZM541.66,131.34c.85,0,1.57.72,1.57,1.57s-.72,1.57-1.57,1.57-1.57-.72-1.57-1.57.72-1.57,1.57-1.57ZM547.11,131.34c.85,0,1.57.72,1.57,1.57s-.72,1.57-1.57,1.57-1.57-.72-1.57-1.57.72-1.57,1.57-1.57Z"/>
    <path class="cls-1" d="M556.95,139.2v10.93h-2.26v-10.93h-1.38v-2.07h1.38v-4.7h2.26v4.7h2.25v2.07h-2.25Z"/>
    <path class="cls-1" d="M562.78,147.31c.85,0,1.57.72,1.57,1.57s-.72,1.57-1.57,1.57-1.57-.72-1.57-1.57.72-1.57,1.57-1.57Z"/>
    <path class="cls-1" d="M266.73,165.22c-.28-.56-.75-1.19-1.22-1.57-.41-.31-1.16-.72-2.35-.72-2.07,0-3.51,1.28-3.51,3.23,0,.81.22,1.28.78,1.82.63.63,1.41.97,2.19,1.31l2,.88c1.22.53,2.35,1.1,3.23,1.97,1.06,1.06,1.5,2.29,1.5,3.79,0,3.85-2.85,6.42-6.61,6.42-1.38,0-3.1-.28-4.54-1.69-1.03-1-1.66-2.44-1.94-3.7l2.26-.63c.16,1.1.66,2.04,1.25,2.66.91.91,1.94,1.16,3.01,1.16,2.85,0,4.2-2.04,4.2-4.14,0-.94-.28-1.75-1.03-2.44-.6-.56-1.41-.94-2.51-1.44l-1.88-.88c-.81-.38-1.85-.81-2.79-1.72-.91-.88-1.44-1.85-1.44-3.41,0-3.23,2.48-5.39,5.86-5.39,1.28,0,2.32.25,3.35.94.85.56,1.57,1.41,2.04,2.32l-1.85,1.22Z"/>
    <path class="cls-1" d="M284.59,178.66c-.38.72-.94,1.5-1.6,2.1-1.19,1.07-2.66,1.6-4.32,1.6-3.13,0-6.42-1.97-6.42-6.8,0-3.88,2.38-6.89,6.3-6.89,2.54,0,4.13,1.25,4.92,2.38.81,1.16,1.28,3.16,1.22,4.89h-10.12c.03,2.69,1.88,4.42,4.13,4.42,1.07,0,1.91-.31,2.66-.94.6-.5,1.06-1.16,1.35-1.79l1.88,1.03ZM282.36,174.05c-.38-2.04-1.91-3.38-3.82-3.38s-3.48,1.44-3.82,3.38h7.64Z"/>
    <path class="cls-1" d="M289.26,162.46c.88,0,1.6.72,1.6,1.6s-.72,1.6-1.6,1.6-1.6-.72-1.6-1.6.72-1.6,1.6-1.6ZM290.38,168.98v13h-2.26v-13h2.26Z"/>
    <path class="cls-1" d="M296.96,171.05v10.93h-2.26v-10.93h-1.38v-2.07h1.38v-4.7h2.26v4.7h2.26v2.07h-2.26Z"/>
    <path class="cls-1" d="M314.85,163.28h-3.51l1.22-2.19h4.6v20.89h-2.32v-18.7Z"/>
    <path class="cls-1" d="M334.3,163.21h-11.43v-2.13h15.35l-13.97,21.39-1.82-1.22,11.87-18.04Z"/>
    <path class="cls-1" d="M348.53,161.9l-4.79,6.67c.59-.19,1.19-.28,1.85-.28,4.01,0,6.77,3.01,6.77,6.89,0,4.17-3.01,7.17-7.17,7.17-4.92,0-7.24-3.82-7.24-7.11,0-.78.16-2.6,1.72-4.79l7.11-9.87,1.75,1.31ZM350.03,175.24c0-2.79-2.07-4.82-4.92-4.82s-4.86,2.1-4.86,4.82,1.97,4.98,4.89,4.98,4.89-2.16,4.89-4.98Z"/>
    <path class="cls-1" d="M369.05,163.21h-6.7l-1.35,4.51c.41-.09.81-.13,1.31-.13,4.2,0,6.89,3.16,6.89,7.24,0,4.67-3.51,7.52-7.61,7.52-1.69,0-3.26-.47-4.67-1.63-.66-.56-1.31-1.28-1.82-2.13l1.85-1.31c.34.69.78,1.19,1.41,1.69.88.72,1.94,1.25,3.38,1.25,2.94,0,5.14-2.41,5.14-5.36s-2.16-5.14-5.14-5.14c-.75,0-2.16.12-4.04,1.44l3.04-10.09h8.3v2.13Z"/>
    <path class="cls-1" d="M374.78,179.16c.85,0,1.57.72,1.57,1.57s-.72,1.57-1.57,1.57-1.57-.72-1.57-1.57.72-1.57,1.57-1.57Z"/>
  </g>
  <g>
    <path class="cls-1" d="M109.18,102.66l22.58-23.4,5.65,5.64,23.09,11.52-11.52-23.1-5.85-5.85,1.63-1.71-5.4-5.4-1.68,1.62-13.5-13.5-11.58,11.58,13.3,13.3-21.23,20.49v-29.54h.49c2.15,0,3.91-1.75,3.9-3.94l-.42-10.96h-4.42l.42,9.76c0,.4-.32.72-.72.72h-3.08c-.39,0-.71-.32-.72-.68l.42-9.8h-4.42l-.42,10.99c0,2.15,1.75,3.9,3.9,3.9h.49v29.54s-23.12-22.34-23.12-22.34c4.94-4.39,10.49-8.11,16.53-11.02l-11.07-12.73c-14.81,8.09-27.03,20.3-35.1,35.13l12.73,11.08c2.91-6.06,6.63-11.63,11.04-16.58l24.43,25.28-36.86,35.59c-.9.87-.96,2.3-.13,3.23,1.6,1.8,3.31,3.52,5.11,5.11.94.83,2.36.77,3.23-.13l31.8-32.97-.39,2.99v.87s-.19,5.83-.19,5.83l-.05.31v.9s-.11,3.51-.11,3.51h0l-.12,3.61-.05.35v.9s-.72,22.48-.72,22.48c0,.02,0,.04,0,.06v.11c-.02.57.18,1.1.58,1.51.39.41.92.63,1.49.63h.05s.09.01.14.01h6.13s.08,0,.12-.01h.08c.57,0,1.09-.22,1.49-.63s.6-.94.58-1.51l-.74-22.93v-.75s-.03-.13-.03-.13l-.25-7.78v-.45s-.02-.08-.02-.08l-.19-5.91v-.96s-.1-.56-.1-.56l-.3-2.27,31.76,32.89c.87.9,2.29.96,3.23.13,1.81-1.6,3.52-3.31,5.11-5.11.83-.94.77-2.36-.13-3.23l-36.89-35.63ZM99.61,62.67c-1.24,0-2.26-1.01-2.26-2.23l.36-9.38h1.12l-.35,8.12c0,1.3,1.06,2.36,2.36,2.36h3.08c1.3,0,2.36-1.06,2.36-2.4l-.35-8.08h1.12l.36,9.35c0,1.25-1.01,2.26-2.26,2.26h-2.13s.01,32.76.01,32.76l-.65.63-.64-.62v-32.77h-2.13ZM104.84,116.71h0s.36,11.22.36,11.22h0l.34,10.61s0,.09,0,.14l.51,16.64c0,.17-.06.32-.17.44-.12.12-.27.19-.44.19h-6.13c-.17,0-.32-.07-.44-.19-.12-.12-.18-.28-.17-.44l.51-15.89c0-.07-.02-.13-.01-.2l.22-6.86v-.36s.02-.13.02-.13l.13-3.96h0l.13-3.92v-.18s0-.25,0-.25v-.06s.23-6.81.23-6.81h0s.31-2.4.66-5.16l1.75-1.82,1.83,1.9c.35,2.72.65,5.08.65,5.08ZM144.73,140.76l-4.3,4.3c-.59.59-1.54.57-2.11-.03l-6.62-7.06h0s-8.77-9.35-8.77-9.35h0s-1.12-1.21-1.12-1.21h0s-7.78-8.3-7.78-8.3l-.58-.58-7.59-10.47c-.04-.06-.08-.11-.13-.16l-3.32-3.32-3.33,3.33s-.09.1-.14.16l-7.59,10.47-.58.58-8.9,9.5h0s-8.77,9.36-8.77,9.36h0s-6.62,7.06-6.62,7.06c-.57.6-1.52.62-2.11.03l-4.3-4.3c-.59-.59-.57-1.54.03-2.1l16.41-15.38.35-.31,9.16-8.59.58-.58,10.47-7.59c.06-.04.11-.09.16-.14l3.33-3.33-4.67-4.67-8.27-8.27-18.29-18.29-4.16,4.16-1.84-1.84,6-6,1.84,1.84,16.45,16.45,14.77,14.77,13.78-13.78h0l13.01-13.02-.96-.96c-1.07-1.07-1.07-2.8,0-3.87l5.07-4.32c1.07-.97,2.73-.95,3.77.09l2.76,2.76c1.04,1.04,1.06,2.69.09,3.77l-4.32,5.07c-1.07,1.07-2.8,1.07-3.87,0l-.68-.68-12.73,12.73h0l-14.06,14.06,3.32,3.32s.1.09.16.13l10.47,7.59.58.58,9.24,8.67.27.24,16.41,15.38c.6.57.62,1.52.03,2.1Z"/>
    <path class="cls-1" d="M132.7,74.11c.53.53,1.4.53,1.94,0l3.65-3.9c.53-.53.53-1.89,0-2.42l-1.21-1.21c-.53-.53-1.89-.53-2.42,0l-3.9,3.65c-.53.53-.53,1.4,0,1.94l1.94,1.94Z"/>
  </g>
</svg>